<?xml version="1.0" standalone="no"?>
<!DOCTYPE svg PUBLIC "-//W3C//DTD SVG 20010904//EN"
 "http://www.w3.org/TR/2001/REC-SVG-20010904/DTD/svg10.dtd">
<svg version="1.0" xmlns="http://www.w3.org/2000/svg"
 width="1110.000000pt" height="1283.000000pt" viewBox="0 0 1110.000000 1283.000000"
 preserveAspectRatio="xMidYMid meet">

<g transform="translate(0.000000,1283.000000) scale(0.100000,-0.100000)"
fill="#fff" stroke="none">
<path d="M6000 9629 l0 -2870 1038 4 c887 4 1056 7 1167 21 665 84 1148 299
1509 670 389 401 611 948 688 1696 18 172 18 923 0 1085 -64 580 -219 1016
-485 1371 -360 480 -911 765 -1659 859 -208 26 -549 34 -1420 35 l-838 0 0
-2871z m2005 2196 c177 -17 290 -35 401 -64 737 -188 1111 -690 1194 -1601 13
-148 13 -879 -1 -1035 -39 -459 -146 -813 -327 -1084 -70 -105 -231 -269 -332
-338 -226 -153 -516 -249 -859 -283 -57 -5 -375 -10 -717 -10 l-614 0 0 2215
0 2215 553 0 c414 0 589 -4 702 -15z"/>
<path d="M1917 6678 c-3 -579 -10 -1110 -16 -1208 -60 -947 -196 -1577 -474
-2199 -60 -135 -332 -680 -345 -693 -4 -4 -103 -10 -219 -14 l-213 -7 0 -66
c-1 -125 41 -1756 46 -1838 l6 -83 299 0 c278 0 299 1 299 18 0 9 11 312 25
672 14 360 25 663 25 673 0 16 93 17 1810 17 l1810 0 0 -22 c-1 -57 51 -1278
56 -1315 l5 -43 294 0 293 0 6 143 c5 113 56 1787 56 1835 0 8 -23 12 -82 12
-46 0 -161 3 -255 7 l-173 6 0 2569 0 2568 -1624 0 -1624 0 -5 -1032z m2473
-1853 l0 -2235 -1254 0 -1255 0 88 173 c355 701 530 1300 611 2091 37 360 42
508 47 1354 l5 852 879 0 879 0 0 -2235z"/>
</g>
</svg>
